#!OML:ASF F:\VICON\USERDATA\INSTALL\rory3\rory3.ASF
:FULLY-SPECIFIED
:DEGREES
690
root 4.47002 15.8712 -7.83165 33.0348 -47.8211 -8.19191
lowerback -8.40265 1.21407 2.21002
upperback -11.0628 1.32985 1.754
thorax -6.91006 0.450661 0.655337
lowerneck -14.3727 -1.8193 -2.23918
upperneck 21.7194 -3.91347 7.29124
head 9.41303 -1.27543 2.39969
rclavicle -7.73901e-015 -2.24627e-014
rhumerus -66.5187 -48.5008 -19.3214
rradius 18.2652
rwrist 4.73614
rhand -18.7632 17.7269
rfingers 7.12502
rthumb 7.53368 -12.119
lclavicle -7.73901e-015 -2.24627e-014
lhumerus -35.2505 16.6577 58.2559
lradius 48.8752
lwrist -11.4685
lhand -3.03283 21.5426
lfingers 7.12502
lthumb 22.6825 50.2295
rfemur 152.244 -191.581 -147.897
rtibia 35.7094
rfoot -52.0336 -30.7519
rtoes 20.2593
lfemur -92.644 27.0825 -54.2695
ltibia 59.7646
lfoot -10.6637 30.9405
ltoes 22.375
691
root 4.43758 15.8472 -7.78166 33.5634 -47.7111 -8.55948
lowerback -9.0732 1.23243 2.55591
upperback -10.914 1.30854 1.77111
thorax -6.36512 0.419814 0.489499
lowerneck -14.5073 -1.83268 -2.1127
upperneck 21.7125 -3.96108 7.28657
head 9.43675 -1.28467 2.3701
rclavicle -4.62477e-014 3.15571e-014
rhumerus -63.9379 -47.3541 -23.7741
rradius 18.2556
rwrist 1.20901
rhand -18.9991 17.2011
rfingers 7.12502
rthumb 7.30601 -12.6528
lclavicle -4.62477e-014 3.15571e-014
lhumerus -36.1425 17.7544 58.543
lradius 46.3461
lwrist -11.0471
lhand -2.61393 21.001
lfingers 7.12502
lthumb 23.0844 49.6383
rfemur 152.141 -191.242 -147.586
rtibia 35.8531
rfoot -51.4111 -31.3918
rtoes 18.1074
lfemur -92.0802 26.7564 -53.5883
ltibia 59.6515
lfoot -11.7783 30.2438
ltoes 20.4433
692
root 4.40392 15.8218 -7.72443 33.8493 -47.7283 -8.85204
lowerback -9.63547 1.30424 2.88813
upperback -10.6697 1.35751 1.68663
thorax -5.77626 0.426786 0.225776
lowerneck -14.6879 -1.85734 -1.90363
upperneck 21.5816 -4.04222 7.31439
head 9.42717 -1.29991 2.33173
rclavicle -3.36785e-014 2.0773e-014
rhumerus -68.2337 -50.1611 -18.9565
rradius 17.9341
rwrist 5.13189
rhand -18.378 17.3806
rfingers 7.12502
rthumb 7.90554 -12.4516
lclavicle -3.36785e-014 2.0773e-014
lhumerus -36.994 19.2519 58.4688
lradius 43.8899
lwrist -12.1182
lhand -1.02343 20.9367
lfingers 7.12502
lthumb 24.6098 49.3746
rfemur 152.272 -191.513 -147.497
rtibia 36.0744
rfoot -52.0235 -31.0414
rtoes 18.8884
lfemur -91.2946 26.5361 -52.8202
ltibia 59.5948
lfoot -13.2543 29.7641
ltoes 19.414
693
root 4.37186 15.7984 -7.66747 33.9295 -47.9676 -8.79351
lowerback -10.06 1.43895 2.91748
upperback -10.518 1.50733 1.43721
thorax -5.36566 0.497702 -0.0369857
lowerneck -15.1002 -1.90141 -1.57598
upperneck 21.6937 -4.20928 7.3642
head 9.54966 -1.33355 2.27233
rclavicle -9.70007e-015 5.06901e-015
rhumerus -70.2219 -51.3588 -17.5533
rradius 17.8692
rwrist 6.19104
rhand -18.2414 16.9834
rfingers 7.12502
rthumb 8.03733 -12.8438
lclavicle -9.70007e-015 5.06901e-015
lhumerus -37.9511 20.3191 58.3958
lradius 41.5665
lwrist -13.1311
lhand 0.0318806 20.8148
lfingers 7.12502
lthumb 25.6209 49.1111
rfemur 152.319 -191.948 -147.771
rtibia 36.2748
rfoot -52.6821 -30.7082
rtoes 19.5731
lfemur -90.5785 26.3239 -52.3998
ltibia 59.5081
lfoot -14.3148 29.587
ltoes 17.5612
694
root 4.33592 15.7676 -7.60885 34.1559 -48.2011 -8.96676
lowerback -10.3161 1.4443 2.79112
upperback -10.5605 1.50987 1.59838
thorax -5.27859 0.511431 0.207084
lowerneck -15.1817 -1.83433 -1.70107
upperneck 22.0529 -4.09339 7.27777
head 9.68488 -1.29159 2.28291
rclavicle -4.03362e-014 -5.30755e-014
rhumerus -68.5511 -50.6681 -20.2409
rradius 17.8813
rwrist 4.79173
rhand -18.1507 16.4166
rfingers 7.12502
rthumb 8.12486 -13.4072
lclavicle -4.03362e-014 -5.30755e-014
lhumerus -39.512 21.5268 58.3333
lradius 39.0319
lwrist -13.7001
lhand 0.409856 20.2907
lfingers 7.12502
lthumb 25.9829 48.5344
rfemur 152.416 -191.805 -147.77
rtibia 36.4507
rfoot -52.604 -30.6056
rtoes 18.7211
lfemur -89.809 26.1072 -51.6029
ltibia 59.418
lfoot -15.9802 29.4586
ltoes 17.1099
695
root 4.30046 15.7401 -7.5444 34.1052 -48.3436 -8.95085
lowerback -10.3155 1.21451 2.42913
upperback -10.7456 1.23066 2.03328
thorax -5.50268 0.403281 0.84966
lowerneck -14.8269 -1.61355 -1.92512
upperneck 22.4174 -3.65566 6.87147
head 9.71568 -1.15559 2.24108
rclavicle -4.84645e-014 -3.26752e-014
rhumerus -66.6471 -49.5253 -22.6162
rradius 17.7875
rwrist 3.98828
rhand -17.7151 16.2096
rfingers 7.12502
rthumb 8.54532 -13.5975
lclavicle -4.84645e-014 -3.26752e-014
lhumerus -41.8268 23.4098 57.7754
lradius 36.3906
lwrist -14.776
lhand 0.593911 19.368
lfingers 7.12502
lthumb 26.1591 47.5858
rfemur 152.651 -191.614 -147.837
rtibia 36.5938
rfoot -52.3909 -31.0089
rtoes 17.2489
lfemur -88.78 25.8282 -50.7798
ltibia 59.3101
lfoot -17.5075 29.2296
ltoes 16.3749
696
root 4.26861 15.7107 -7.48649 34.0577 -48.4535 -8.98743
lowerback -10.2799 1.0959 2.3487
upperback -10.8054 1.07947 2.16461
thorax -5.59228 0.33477 1.02425
lowerneck -14.9147 -1.3296 -1.46211
upperneck 22.8575 -3.2929 6.40545
head 9.85383 -0.992525 2.05145
rclavicle 8.73311e-014 -5.82688e-015
rhumerus -66.5065 -49.3839 -23.1597
rradius 17.6348
rwrist 4.5515
rhand -17.2696 15.9255
rfingers 7.12502
rthumb 8.97521 -13.8636
lclavicle 8.73311e-014 -5.82688e-015
lhumerus -44.0885 25.5597 56.5722
lradius 34.3655
lwrist -16.6426
lhand 1.42615 18.8842
lfingers 7.12502
lthumb 26.9557 46.9815
rfemur 152.945 -191.985 -147.912
rtibia 36.6768
rfoot -52.695 -31.3321
rtoes 16.8865
lfemur -87.7521 25.4679 -49.8106
ltibia 59.2111
lfoot -18.7922 29.237
ltoes 15.4762
697
root 4.23108 15.6846 -7.42174 34.3649 -48.5853 -9.33434
lowerback -10.5988 1.14844 2.61469
upperback -10.7688 1.1136 2.1231
thorax -5.37231 0.332711 0.83799
lowerneck -15.1474 -1.38732 -1.38691
upperneck 23.0332 -3.42357 6.46009
head 9.96764 -1.03359 2.04285
rclavicle 2.15451e-014 -4.20927e-014
rhumerus -66.1303 -49.1797 -24.4735
rradius 17.5469
rwrist 4.80912
rhand -16.5573 15.6673
rfingers 7.12502
rthumb 9.66251 -14.0911
lclavicle 2.15451e-014 -4.20927e-014
lhumerus -46.1788 28.0392 54.7836
lradius 32.5053
lwrist -19.0312
lhand 2.66764 18.875
lfingers 7.12502
lthumb 28.1429 46.7829
rfemur 153.221 -192.014 -147.785
rtibia 36.7041
rfoot -52.9007 -31.2075
rtoes 16.6232
lfemur -87.0009 25.2098 -48.8203
ltibia 59.18
lfoot -19.721 29.4494
ltoes 13.4308
698
root 4.18271 15.6617 -7.3495 34.6365 -48.7288 -9.52989
lowerback -11.1349 1.03536 2.43147
upperback -10.7819 0.948803 2.3955
thorax -5.10222 0.270004 1.22255
lowerneck -15.212 -1.21414 -1.19491
upperneck 23.3257 -3.14859 6.05875
head 10.0611 -0.930384 1.90842
rclavicle 4.08712e-015 -1.05356e-014
rhumerus -64.0345 -47.9591 -27.5295
rradius 17.5987
rwrist 3.77292
rhand -15.5861 15.4275
rfingers 7.12502
rthumb 10.5994 -14.2852
lclavicle 4.08712e-015 -1.05356e-014
lhumerus -48.6782 30.5591 52.8085
lradius 30.2363
lwrist -21.0567
lhand 3.56084 18.6476
lfingers 7.12502
lthumb 28.9963 46.412
rfemur 153.47 -191.457 -147.714
rtibia 36.6977
rfoot -52.5382 -31.1896
rtoes 15.1322
lfemur -86.3981 25.0083 -48.1044
ltibia 59.2717
lfoot -20.6039 29.5456
ltoes 11.4101
699
root 4.13155 15.6369 -7.28631 34.8879 -48.9898 -9.63287
lowerback -11.7498 1.35024 2.69364
upperback -10.7421 1.30704 1.90116
thorax -4.70769 0.417808 0.590974
lowerneck -15.3051 -1.32023 -0.751898
upperneck 23.6179 -3.47965 6.19126
head 10.1967 -1.02397 1.83951
rclavicle 1.47458e-015 1.47101e-014
rhumerus -63.8913 -47.5202 -29.5176
rradius 17.9666
rwrist 2.70975
rhand -14.9634 14.9733
rfingers 7.12502
rthumb 11.2001 -14.7078
lclavicle 1.47458e-015 1.47101e-014
lhumerus -49.8722 31.9528 50.8141
lradius 27.2932
lwrist -22.9673
lhand 3.7931 17.977
lfingers 7.12502
lthumb 29.2182 45.703
rfemur 153.652 -190.829 -147.745
rtibia 36.6861
rfoot -52.0731 -30.7699
rtoes 14.3501
lfemur -86.0148 24.93 -47.6691
ltibia 59.4592
lfoot -21.9392 29.381
ltoes 10.8284
700
root 4.08185 15.6038 -7.22732 35.2175 -49.2057 -9.95156
lowerback -11.8569 1.16051 2.06802
upperback -10.9509 1.1003 2.42618
thorax -4.90187 0.365221 1.47862
lowerneck -15.2364 -1.14978 -0.95769
upperneck 24.1692 -3.17389 5.98066
head 10.3675 -0.921295 1.84765
rclavicle -1.60121e-014 -6.71054e-014
rhumerus -63.2843 -46.8016 -30.1865
rradius 17.9986
rwrist 3.38031
rhand -14.2469 14.5231
rfingers 7.12502
rthumb 11.891 -15.1192
lclavicle -1.60121e-014 -6.71054e-014
lhumerus -53.3666 34.599 47.646
lradius 24.8406
lwrist -25.2108
lhand 3.88993 17.438
lfingers 7.12502
lthumb 29.3106 45.1479
rfemur 153.939 -190.823 -147.692
rtibia 36.6841
rfoot -52.2212 -30.067
rtoes 14.9026
lfemur -85.7075 24.9118 -47.0724
ltibia 59.7241
lfoot -23.5425 29.1545
ltoes 11.1381
